<svg xmlns="http://www.w3.org/2000/svg" viewBox="0 0 32 32" fill="none">
  <defs>
    <linearGradient id="tf-brand" x1="0" y1="0" x2="32" y2="32" gradientUnits="userSpaceOnUse">
      <stop stop-color="#6d28d9"/>
      <stop offset="1" stop-color="#9333ea"/>
    </linearGradient>
  </defs>
  <rect width="32" height="32" rx="8" fill="url(#tf-brand)"/>
  <g stroke="#fff" stroke-width="1.75" stroke-linecap="round" stroke-linejoin="round">
    <path d="M16 7.5l1.1 3.4 3.4 1.1-3.4 1.1L16 16.5l-1.1-3.4-3.4-1.1 3.4-1.1L16 7.5z"/>
    <path d="M22.5 19l.7 2.1 2.1.7-2.1.7-.7 2.1-.7-2.1-2.1-.7 2.1-.7.7-2.1z"/>
    <path d="M9 19.5l.55 1.65 1.65.55-1.65.55L9 23.8l-.55-1.65-1.65-.55 1.65-.55L9 19.5z"/>
  </g>
</svg>
